<svg xmlns="http://www.w3.org/2000/svg" viewBox="0 0 91 27" width="91" height="27">
	<style>
		tspan { white-space:pre }
		.shp0 { fill: #000000 } 
	</style>
	<g id="Header">
		<g id="Header">
			<g id="Logo">
				<path id="Silon. " fill-rule="evenodd" class="shp0" d="M17.98 1.99L17.98 7.24C16.61 6.63 15.29 6.17 13.99 5.86C12.7 5.55 11.47 5.4 10.32 5.4C8.8 5.4 7.67 5.61 6.94 6.03C6.21 6.45 5.84 7.1 5.84 7.99C5.84 8.65 6.08 9.17 6.57 9.55C7.07 9.91 7.97 10.23 9.26 10.49L11.98 11.04C14.74 11.6 16.7 12.44 17.86 13.57C19.02 14.69 19.6 16.3 19.6 18.38C19.6 21.11 18.79 23.15 17.16 24.49C15.55 25.82 13.07 26.48 9.74 26.48C8.17 26.48 6.59 26.33 5.01 26.03C3.43 25.73 1.85 25.29 0.26 24.71L0.26 19.31C1.85 20.15 3.37 20.79 4.84 21.22C6.33 21.64 7.76 21.85 9.13 21.85C10.52 21.85 11.59 21.62 12.33 21.15C13.07 20.69 13.44 20.02 13.44 19.16C13.44 18.39 13.19 17.79 12.68 17.37C12.18 16.95 11.18 16.57 9.68 16.24L7.2 15.69C4.72 15.16 2.91 14.31 1.76 13.15C0.62 11.99 0.05 10.42 0.05 8.45C0.05 5.98 0.84 4.09 2.44 2.76C4.03 1.43 6.32 0.77 9.31 0.77C10.67 0.77 12.07 0.87 13.51 1.08C14.95 1.28 16.44 1.58 17.98 1.99ZM24.95 26L24.95 7.41L30.89 7.41L30.89 26L24.95 26ZM24.95 5.02L24.95 0.17L30.89 0.17L30.89 5.02L24.95 5.02ZM36.6 26L36.6 0.17L42.55 0.17L42.55 26L36.6 26ZM57.11 6.96C60.3 6.96 62.8 7.82 64.59 9.55C66.4 11.27 67.3 13.66 67.3 16.72C67.3 19.77 66.4 22.16 64.59 23.89C62.8 25.62 60.3 26.48 57.11 26.48C53.9 26.48 51.38 25.62 49.57 23.89C47.77 22.16 46.86 19.77 46.86 16.72C46.86 13.66 47.77 11.27 49.57 9.55C51.38 7.82 53.9 6.96 57.11 6.96ZM57.11 11.21C55.79 11.21 54.78 11.68 54.08 12.64C53.4 13.58 53.06 14.94 53.06 16.72C53.06 18.5 53.4 19.87 54.08 20.82C54.78 21.76 55.79 22.23 57.11 22.23C58.4 22.23 59.39 21.76 60.08 20.82C60.76 19.87 61.11 18.5 61.11 16.72C61.11 14.94 60.76 13.58 60.08 12.64C59.39 11.68 58.4 11.21 57.11 11.21ZM90.31 14.68L90.31 26L84.33 26L84.33 17.33C84.33 15.73 84.29 14.62 84.22 14.01C84.15 13.4 84.03 12.96 83.85 12.67C83.62 12.28 83.3 11.98 82.91 11.77C82.51 11.55 82.05 11.44 81.54 11.44C80.3 11.44 79.33 11.92 78.62 12.88C77.91 13.84 77.56 15.16 77.56 16.85L77.56 26L71.62 26L71.62 7.41L77.56 7.41L77.56 10.13C78.46 9.04 79.41 8.25 80.41 7.74C81.42 7.22 82.53 6.96 83.75 6.96C85.9 6.96 87.53 7.62 88.63 8.93C89.75 10.25 90.31 12.17 90.31 14.68Z" />
			</g>
		</g>
	</g>
</svg>